<?xml version="1.0" encoding="UTF-8" standalone="no"?>
<svg
   xmlns:dc="http://purl.org/dc/elements/1.1/"
   xmlns:cc="http://creativecommons.org/ns#"
   xmlns:rdf="http://www.w3.org/1999/02/22-rdf-syntax-ns#"
   xmlns:svg="http://www.w3.org/2000/svg"
   xmlns="http://www.w3.org/2000/svg"
   xmlns:sodipodi="http://sodipodi.sourceforge.net/DTD/sodipodi-0.dtd"
   xmlns:inkscape="http://www.inkscape.org/namespaces/inkscape"
   inkscape:version="1.0 (4035a4fb49, 2020-05-01)"
   sodipodi:docname="svkLogo.svg"
   viewBox="0 0 218 231"
   height="231"
   width="218"
   id="svg10"
   version="1.1">
  <metadata
     id="metadata16">
    <rdf:RDF>
      <cc:Work
         rdf:about="">
        <dc:format>image/svg+xml</dc:format>
        <dc:type
           rdf:resource="http://purl.org/dc/dcmitype/StillImage" />
        <dc:title></dc:title>
      </cc:Work>
    </rdf:RDF>
  </metadata>
  <defs
     id="defs14" />
  <sodipodi:namedview
     inkscape:current-layer="g18"
     inkscape:window-maximized="1"
     inkscape:window-y="-8"
     inkscape:window-x="-8"
     inkscape:cy="115.5"
     inkscape:cx="109"
     inkscape:zoom="3.7575145"
     showgrid="false"
     id="namedview12"
     inkscape:window-height="1017"
     inkscape:window-width="1920"
     inkscape:pageshadow="2"
     inkscape:pageopacity="0"
     guidetolerance="10"
     gridtolerance="10"
     objecttolerance="10"
     borderopacity="1"
     bordercolor="#666666"
     pagecolor="#ffffff" />
  <g
     id="g18"
     inkscape:label="Image"
     inkscape:groupmode="layer">
    <path
       id="path22"
       d="m 30.669333,-3.3226674 c -6.1159,10.3706 -21.0722997,28.8090004 -21.3348997,40.9999954 -0.1082,5.0225 4.9650997,10.5976 7.0725997,15 3.6859,7.6996 5.3838,16.5192 3.7947,25 -1.3068,6.9742 -4.8931,13.6484 -9.8326,18.714 -3.0705897,3.149 -9.0647997,6.130002 -8.0030397,11.301002 1.96323,9.561 10.3485397,20.394 14.9946397,28.985 11.3182,20.927 23.9351,42.135 33.3086,64 h 2 l 28,-37 27.999997,60 c 12.64,-16.98 21.869,-41.445 30,-61 h 2 l 19.127,27 9.873,11 c 6.779,-23.53 22.303,-46.818 32.781,-69 3.367,-7.128 11.058,-17.019 11.461,-24.961 0.241,-4.737 -6.607,-10.203002 -9.099,-14.039002 -5.544,-8.5334 -8.555,-16.6935 -8.104,-27 0.498,-11.3574 8.341,-18.6996 10.407,-28.999995 1.659,-8.2735 -10.399,-22.1292 -14.435,-29.0000004 -1.654,-2.8142 -3.264,-7.31551999 -6.34,-8.87885 -4.421,-2.24743 -13.282,2.85047 -17.671,4.15818 -14.299,4.26077 -29.202,7.5091704 -44,9.4312704 -33.654397,4.3713 -62.309297,-7.0429004 -93.999997,-15.7106004 m 154.999997,5 13.769,24.0000004 3.52,9.6713 -11.289,7.907395 -32,18.0247 -93.999997,53.258602 -44,24.138 c -3.4645,-8.321 -8.3823,-15.94 -12.3980997,-24 -1.34077,-2.691 -3.92432,-6.716 -2.46918,-9.787 1.79871,-3.796 8.4055797,-6.087002 11.8672797,-8.063002 10.3688,-5.918 20.7452,-11.8428 31,-17.9494 28.7939,-17.1463 58.208997,-33.2639 86.999997,-50.401195 14.556,-8.6643 32.468,-23.0166004 49,-26.7994004 m -4,16.0000004 c 1.447,1.6197 12.27,16.8777 3.059,14.3873 -3.838,-1.0377 -6.163,-7.2903 -8.059,-10.3873 l -5,2 c 2.432,3.3279 4.84,8.6401 8.379,10.8202 4.414,2.719 10.579,-0.5721 10.288,-5.8349 -0.227,-4.129 -3.344,-8.1121 -4.667,-11.9853 l -4,1 m -113.999997,12 1,20.999995 -18,-12 8,-3.999995 9,9.999995 c -0.541,-4.2772 -0.3194,-10.443795 -5,-11.999995 v -1 l 5,-2 m 91.999997,0 2,17.999995 4,-1 v -1 l -3,-4 3,-1 v -1 l -3,1 -1,-4.999995 c 4.968,3.282595 9.281,8.452895 15,3.999995 l -17,-9.999995 m -16,8.999995 v 1 l 5,6 -5,2 -2,-7 -7,3 v 1 l 9,13 6,-2 -5,-7 5,-2 2,6 7,-2 c -4.478,-5.529 -6.967,-13.241795 -15,-12 m -95.999997,2 1,4 -5,-1 v -1 l 4,-2 m -5,2 c -4.66,10.4958 21.7385,6.4923 10,18 0.6582,-7.4265 -25.3073,-8.0417 -10,-18 m 86.999997,4 c -3.707,2.393 -8.281,4.2574 -9.384,9.0039 -2.502,10.766 11.591,13.2313 16.384,4.9961 -11.303,6.0842 -17.676,-11.4104 -5,-10 l -2,-4 m -20,25 1,4 c 4.059,-0.6448 14.357,-6.1208 7.566,-10.8202 -2.741,-1.8964 -7.379,-1.0066 -10.566,-1.1798 v -4 h 7 l -1,-3 c -3.396,1.0123 -11.568,5.6548 -6.396,9.9869 2.398,2.0079 6.563,0.5878 8.76,2.8433 3.682,3.7799 -5.012,2.6998 -6.364,2.1698 m -65.999997,-13 7,3 v 1 c -3.7155,1.0839 -7.6517,0.7913 -7,-4 m 92.999997,0 1,1 -1,-1 m -45.999997,15 5,-5 v 16 c 5.192997,-1.4961 11.912997,-3.6902 10.999997,-10 l -6.999997,7 v -17 c -3.2586,1.1114 -14.365,4.822 -9,9 m -17,10 1,-5 h 1 l 7,13 7,-2 v -1 c -4.9587,-2.5352 -7.7764,-7.665 -9,-13 l 5,1 -1,-3 c -3.7106,0.7077 -17.7784,5.5068 -11,10 m 81.999997,7 c 17.119,0.0254 -7.017,21.191002 -5,8 l 8,1 c -2.09,-4.594 -4.006,-5.7719 -9,-5 l 3,-3 -6,-7 1,6 c -10.167,-3.3872 11.322,-16.1428 8,0 m -101.999997,-1 9,14.000002 c 4.9594,-2.076 11.0097,-4.225002 12,-10.000002 -4.3911,2.931 -6.6469,6.045 -10,0 l 4,1 -2,-6 h -1 l -1,4 h -2 c -1.1445,-4.7788 -0.1543,-6.8515 5,-6 l -1,-4 -13,7 m 79.999997,19.000002 c 5.746,1.274 8.097,0.457 8,-6 -7.038,4.645 -19.381,0.027 -11.566,-8.771602 7.74,-8.7155 18.128,4.3416 14.824,12.756602 -1.978,5.036 -9.149,8.364 -11.258,2.015 m 5,-5 c 1.436,-16.409202 -14.511,-4.174002 0,0 M 36.669333,98.677328 v 1 l 9,14.000002 7,-3 v -1 l -5,-5 c 4.0318,2.113 8.8893,4.384 12,0 l -9,-3 c 5.716,-11.893002 -9.2774,-5.034002 -14,-3.000002 m 11,4.000002 h -2 l -2,-6.000002 c 3.5357,1.073 4.54,2.325 4,6.000002 m 69.999997,10 c -6.43,-2.259 -7.841,-10.417 0.011,-12.289 4.247,-1.012002 4.984,2.168 6.533,5.165 1.49,2.882 5.402,4.58 5.45,8.142 0.122,9.114 -17.393,10.761 -11.994,-1.018 m -88.999997,-9 1,4 h 1 l 3,-6 -5,2 m 85.999997,-1 5,6 c -0.3,-3.864 -1.089,-5.348 -5,-6 m -90.999997,4 -5,3 8,13 7,-2 -5,-6 c 5.1632,1.988 8.7052,3.19 14,1 v -1 l -13,-6 h -1 v 4 l -5,-6 m 77.999997,4 12,15 -9,5 -5.999997,-16 -3,1 5.999997,-5 m 18,2 c 1.693,10.835 11.095,0.846 0,0 m 34,2 -1,25 -21,-12 10,-6 c 1.46,5.093 5.399,7.708 10,10 l -3,-13 -3,1 8,-5 m 17,15 c -7.309,-1.218 -1.218,-7.309 0,0 m -44,16 c -8.421,4.218 -5.702,8.08 2,3 -2.483,7.238 -15.782,12.183 -15.782,0.997 0,-8.028 9.998,-11.021 13.782,-3.997 m 10,-3 c 2.604,7.698 -7.162,3.975 0,0 m -20,2 1,4 4,-2 z"
       style="fill:#0741c4;stroke:none" />
  </g>
</svg>
